<svg width="197" height="288" viewBox="0 0 197 288" fill="none" xmlns="http://www.w3.org/2000/svg">
<path d="M196.716 68.114C196.668 64.0873 195.299 60.3759 193.004 57.3948C192.206 56.5608 191.392 55.7347 190.566 54.9166C190.255 54.6133 189.939 54.31 189.628 54.0147C189.62 54.0027 189.62 53.9947 189.616 54.0027C186.567 51.6601 182.764 50.2714 178.642 50.2714H18.082C13.9317 50.2714 10.1006 51.6841 7.04366 54.0426L7.03568 54.0506C6.4211 54.5175 5.84244 55.0283 5.2997 55.5711C4.741 56.1298 4.22221 56.7204 3.75529 57.343L3.7473 57.3509C1.39675 60.3999 0 64.215 0 68.3454V228.909C0 232.225 0.893927 235.334 2.4583 238C3.24447 239.349 4.19826 240.59 5.2997 241.687C6.4211 242.801 7.67819 243.766 9.05499 244.561C11.7088 246.105 14.7937 246.987 18.0781 246.987H58.0054L78.3462 267.356H78.3542L90.3663 279.384H90.3743L91.1086 280.118V280.126L98.3358 287.361L138.71 246.987H178.638C180.202 246.987 181.722 246.787 183.175 246.404H183.183C184.775 245.989 186.276 245.371 187.661 244.561C189.037 243.77 190.294 242.801 191.416 241.687C192.517 240.594 193.471 239.353 194.257 237.996C195.826 235.33 196.72 232.229 196.72 228.913V68.3454C196.72 68.2656 196.72 68.1938 196.716 68.114ZM10.336 68.3454C10.336 67.1642 10.5994 66.0468 11.0783 65.0371C11.2419 64.7019 11.4295 64.3667 11.633 64.0594C11.8525 63.7321 12.0959 63.4248 12.3513 63.1415C12.4351 63.0497 12.5389 62.9539 12.6307 62.8661C12.9579 62.5309 13.337 62.2276 13.7242 61.9602C14.0474 61.7408 14.3866 61.5452 14.7458 61.3696C15.7554 60.8827 16.8888 60.6074 18.0781 60.6074H47.2903L10.332 97.5656V68.3454H10.336ZM18.082 236.655C17.2799 236.655 16.5137 236.535 15.7834 236.308C15.3524 236.168 14.9254 235.996 14.5303 235.789C13.1415 235.067 12.0041 233.941 11.2619 232.568C11.0384 232.161 10.8468 231.722 10.7032 231.271C10.4677 230.521 10.332 229.731 10.332 228.905V199.693L47.2823 236.651H18.082V236.655ZM186.392 228.909C186.392 229.735 186.256 230.529 186.02 231.275C185.873 231.726 185.685 232.165 185.462 232.572C184.719 233.941 183.586 235.067 182.201 235.793C181.798 236 181.375 236.172 180.948 236.312C180.218 236.535 179.444 236.659 178.642 236.659H149.437L186.396 199.701V228.909H186.392ZM186.392 185.087L138.495 232.991L124.252 246.987L102.299 268.94L98.3638 272.871L72.4798 246.987L38.4189 213.169L38.3351 213.09L37.5489 212.303L10.332 185.099V97.5696H10.34V112.168L60.6513 61.8605L61.9044 60.6074H134.831L186.392 112.172V185.087ZM186.392 97.5577L149.433 60.6074H178.638C179.819 60.6074 180.944 60.8708 181.942 61.3497C182.305 61.5133 182.652 61.7128 182.987 61.9403C183.291 62.1478 183.578 62.3793 183.845 62.6227C183.941 62.7065 184.041 62.8063 184.125 62.8981C184.464 63.2373 184.771 63.6084 185.043 64.0115C185.266 64.3387 185.462 64.6819 185.637 65.0451C186.116 66.0508 186.388 67.1682 186.388 68.3494V97.5577H186.392Z" fill="#FDF4E0"/>
<path d="M43.2398 37.3972C55.7627 37.3972 59.953 30.3695 59.953 21.4742H49.0742C48.3918 26.9136 46.9192 28.6735 43.2398 28.6735C37.6288 28.6735 37.1739 24.0841 37.1739 18.7006C37.1739 13.3211 37.9081 8.78761 43.2398 8.78761C46.8674 8.78761 48.5076 10.5395 49.0742 15.8073H59.953C59.953 7.30705 55.6989 0 43.2398 0C28.8452 0 26.1833 9.63364 26.1833 18.6966C26.1873 27.7676 28.7893 37.3972 43.2398 37.3972Z" fill="#FDF4E0"/>
<path d="M74.4554 30.8804H85.7851L87.545 36.8306H98.9904L86.6391 0.566711H73.9485L61.1462 36.8306H72.5358L74.4554 30.8804ZM80.1182 9.52592L83.8057 22.8949H76.4387L80.1182 9.52592Z" fill="#FDF4E0"/>
<path d="M112.467 23.4057L120.345 36.8345H133.881L123.398 23.5773C128.837 22.5557 131.16 18.1938 131.16 13.3251C131.16 8.10919 129.911 0.570679 115.747 0.570679H101.584V36.8345H112.463V23.4057H112.467ZM112.467 9.23857H115.356C119.207 9.23857 120.177 10.6553 120.177 13.3211C120.177 15.7554 119.271 17.2839 115.356 17.2839H112.467V9.23857Z" fill="#FDF4E0"/>
<path d="M152.809 37.3972C167.595 37.3972 170.429 27.8194 170.429 18.7565C170.429 9.58175 167.595 0.00396729 152.809 0.00396729C138.08 0.00396729 135.242 9.58175 135.242 18.7006C135.242 27.8194 138.024 37.3972 152.809 37.3972ZM152.809 8.78759C159.039 8.78759 159.382 13.3211 159.382 18.7525C159.382 24.0841 159.043 28.6695 152.809 28.6695C146.632 28.6695 146.237 24.0801 146.237 18.6966C146.237 13.3211 146.632 8.78759 152.809 8.78759Z" fill="#FDF4E0"/>
<path d="M15.1609 23.9763C17.7549 21.3824 17.7549 17.1761 15.1609 14.5821C12.5669 11.9882 8.36066 11.9882 5.76668 14.5821L1.06958 19.2792L5.76668 23.9763C8.36066 26.5703 12.5629 26.5703 15.1609 23.9763Z" fill="#FDF4E0"/>
<path d="M182.277 23.9763C184.871 26.5703 189.077 26.5703 191.671 23.9763L196.368 19.2792L191.671 14.5821C189.077 11.9882 184.871 11.9882 182.277 14.5821C179.683 17.1761 179.683 21.3824 182.277 23.9763Z" fill="#FDF4E0"/>
<path d="M104.154 183.666L108.265 207.255C108.624 209.314 110.627 210.679 112.675 210.252L112.842 210.212L150.228 202.446L158.181 165.177L158.225 164.945C158.664 162.894 157.307 160.883 155.232 160.52L131.619 156.409C129.416 156.026 127.261 157.323 126.578 159.45C125.178 163.776 122.759 167.843 119.323 171.279L119.295 171.307C115.799 174.794 111.645 177.233 107.227 178.618C105.088 179.28 103.771 181.443 104.154 183.666ZM127.6 179.739C127.612 179.727 127.632 179.711 127.644 179.699L127.552 179.607C127.74 179.48 127.931 179.368 128.131 179.264C129.312 178.302 130.817 177.724 132.461 177.724C136.256 177.724 139.337 180.801 139.337 184.6V191.472H132.461C128.666 191.472 125.585 188.399 125.585 184.6C125.585 182.7 126.355 180.988 127.6 179.739Z" fill="#FDF4E0"/>
<path d="M158.309 135.953L158.269 135.785L150.503 98.4037L113.237 90.4541L113.002 90.4022C110.95 89.9672 108.939 91.3241 108.576 93.3953L104.466 117.012C104.082 119.215 105.379 121.37 107.506 122.057C111.832 123.454 115.899 125.872 119.331 129.3L119.363 129.332C122.851 132.832 125.289 136.99 126.666 141.404C127.34 143.547 129.507 144.864 131.726 144.473L155.316 140.366C157.371 140.003 158.736 138.008 158.309 135.953ZM139.744 115.923C139.744 119.718 136.671 122.799 132.872 122.799C130.972 122.799 129.256 122.029 128.011 120.78C128.003 120.772 127.999 120.768 127.991 120.76C127.488 120.253 127.061 119.662 126.738 119.02C126.263 118.09 126 117.04 126 115.923C126 112.124 129.076 109.043 132.876 109.043H139.748V115.923H139.744Z" fill="#FDF4E0"/>
<path d="M38.7899 164.598L38.8298 164.766L46.5958 202.147L83.8613 210.096L84.0968 210.148C86.148 210.583 88.1593 209.227 88.5225 207.155L92.633 183.538C93.0161 181.335 91.7191 179.18 89.592 178.494C85.2661 177.097 81.1995 174.679 77.7675 171.251L77.7355 171.219C74.2476 167.719 71.8093 163.56 70.4325 159.147C69.758 157.004 67.5911 155.687 65.3722 156.078L41.7829 160.184C39.7237 160.547 38.3629 162.543 38.7899 164.598ZM57.3508 184.628C57.3508 180.832 60.4237 177.752 64.2229 177.752C66.1225 177.752 67.8385 178.522 69.0836 179.771C69.0916 179.779 69.0956 179.783 69.1036 179.791C69.6064 180.298 70.0334 180.888 70.3566 181.531C70.8315 182.461 71.0949 183.51 71.0949 184.628C71.0949 188.427 68.0181 191.508 64.2189 191.508H57.3468V184.628H57.3508Z" fill="#FDF4E0"/>
<path d="M88.4189 93.3275C88.0597 91.2603 86.0603 89.8994 84.0131 90.3304L83.8375 90.3703L46.4522 98.1363L38.5067 135.402L38.4548 135.629C38.0198 137.689 39.3766 139.696 41.4478 140.055L65.0611 144.173C67.2639 144.557 69.4189 143.26 70.1093 141.129C71.5061 136.807 73.9205 132.74 77.3525 129.3C77.3605 129.292 77.3685 129.284 77.3805 129.272C80.8843 125.784 85.0387 123.346 89.4564 121.965C91.5995 121.291 92.9084 119.124 92.5253 116.909L88.4189 93.3275ZM69.1675 120.951C69.1595 120.959 69.1516 120.963 69.1356 120.971L69.1396 120.975C69.1276 120.991 69.1116 121.007 69.0957 121.023C67.8466 122.272 66.1346 123.039 64.235 123.039C60.4398 123.039 57.3589 119.962 57.3589 116.162V109.294H64.235C68.0302 109.294 71.111 112.363 71.111 116.162C71.111 118.034 70.3727 119.714 69.1675 120.951Z" fill="#FDF4E0"/>
<path d="M98.3417 140.787L88.8376 150.291L98.3417 159.795L107.846 150.291L98.3417 140.787Z" fill="#FDF4E0"/>
<path d="M98.8547 134.765C100.571 134.487 101.737 132.869 101.458 131.153C101.18 129.436 99.5624 128.271 97.8459 128.549C96.1293 128.828 94.9636 130.445 95.2422 132.162C95.5208 133.878 97.1382 135.044 98.8547 134.765Z" fill="#FDF4E0"/>
<path d="M87.3973 139.341C88.6264 138.112 88.6264 136.116 87.3973 134.887C86.1681 133.658 84.1727 133.658 82.9436 134.887C81.7144 136.116 81.7144 138.112 82.9436 139.341C84.1727 140.574 86.1641 140.574 87.3973 139.341Z" fill="#FDF4E0"/>
<path d="M80.4358 153.336C82.1281 152.936 83.1761 151.24 82.7765 149.548C82.3769 147.856 80.681 146.808 78.9886 147.207C77.2963 147.607 76.2483 149.303 76.6479 150.995C77.0475 152.688 78.7434 153.736 80.4358 153.336Z" fill="#FDF4E0"/>
<path d="M82.9436 165.692C84.1687 166.921 86.1641 166.921 87.3973 165.692C88.6264 164.462 88.6264 162.463 87.3973 161.234C86.1681 160.005 84.1687 160.005 82.9436 161.234C81.7184 162.459 81.7144 164.45 82.9356 165.684C82.9396 165.688 82.9396 165.688 82.9436 165.692Z" fill="#FDF4E0"/>
<path d="M98.3438 172.069C100.083 172.069 101.492 170.659 101.492 168.92C101.492 167.181 100.083 165.771 98.3438 165.771C96.6048 165.771 95.1951 167.181 95.1951 168.92C95.1951 170.659 96.6048 172.069 98.3438 172.069Z" fill="#FDF4E0"/>
<path d="M109.291 165.692C110.52 166.921 112.511 166.921 113.74 165.696L113.744 165.692C114.973 164.462 114.973 162.463 113.744 161.234C112.519 160.005 110.524 160.005 109.291 161.234C108.061 162.467 108.061 164.462 109.291 165.692Z" fill="#FDF4E0"/>
<path d="M119.201 152.517C120.43 151.287 120.43 149.294 119.201 148.064C117.971 146.834 115.978 146.834 114.748 148.064C113.518 149.294 113.518 151.287 114.748 152.517C115.978 153.747 117.971 153.747 119.201 152.517Z" fill="#FDF4E0"/>
<path d="M109.291 134.887C108.061 136.116 108.061 138.112 109.291 139.341C110.52 140.57 112.515 140.57 113.744 139.341C114.973 138.112 114.973 136.116 113.744 134.887C112.515 133.658 110.52 133.658 109.291 134.887Z" fill="#FDF4E0"/>
</svg>
