<svg width="196" height="286" viewBox="0 0 196 286" fill="none" xmlns="http://www.w3.org/2000/svg">
<path d="M185.142 96.971V111.489V183.917L133.929 235.138L123.673 245.399H123.422L101.612 267.208L97.7053 271.111L71.993 245.399H71.7455L61.4853 235.138L10.2602 183.929V111.481V96.979L10.2642 96.975V67.9543C10.2642 66.781 10.5276 65.6676 11.0025 64.6659C11.1661 64.3307 11.3537 63.9995 11.5572 63.6922C11.7727 63.369 12.0121 63.0657 12.2675 62.7823C12.3513 62.6905 12.4511 62.5908 12.5429 62.507C12.8741 62.1757 13.2413 61.8724 13.6284 61.609C13.9516 61.3935 14.2869 61.194 14.642 61.0224C15.6437 60.5355 16.7691 60.2642 17.9583 60.2642H46.971L10.2602 96.975V111.481L60.2362 61.5093L60.2442 61.5013L61.4414 60.2721L60.2482 61.5013L61.4853 60.2642H61.4494L61.4534 60.2602H133.925L185.142 111.485V96.971L148.432 60.2642H177.444C178.618 60.2642 179.731 60.5276 180.725 61.0024C181.088 61.1661 181.431 61.3656 181.758 61.5891C182.062 61.7926 182.345 62.0241 182.616 62.2675C182.708 62.3513 182.808 62.4471 182.892 62.5389C183.227 62.8741 183.53 63.2452 183.802 63.6443C184.025 63.9676 184.225 64.3108 184.396 64.6739C184.879 65.6676 185.142 66.781 185.142 67.9543V96.971L195.403 107.231V67.9583C195.403 67.8785 195.403 67.8067 195.395 67.7269C195.347 63.7281 193.986 60.0367 191.711 57.0756C190.921 56.2455 190.111 55.4274 189.285 54.6173C188.974 54.314 188.666 54.0107 188.355 53.7193C188.347 53.7074 188.347 53.6994 188.343 53.7074C185.318 51.3808 181.535 50.004 177.44 50.004H17.9623C13.8359 50.004 10.0327 51.4087 6.99577 53.7553L6.98778 53.7633C6.38119 54.2262 5.80652 54.733 5.26777 55.2718C4.71306 55.8265 4.19825 56.4131 3.73133 57.0317L3.72336 57.0396C1.38877 60.0646 0 63.8558 0 67.9623V107.235L8.67587 98.5593L0.00398246 107.239V121.746V173.669V188.167V227.444C0.00398246 230.737 0.893928 233.825 2.44633 236.475C3.22452 237.816 4.17431 239.049 5.26777 240.139C6.38119 241.244 7.63029 242.206 8.99512 242.992C11.629 244.529 14.6939 245.403 17.9583 245.403H57.2232H57.6143L77.8194 265.636H77.8274L89.7557 277.584H89.7637L90.494 278.314V278.322L97.6694 285.506L104.881 278.294L105.591 277.584L137.772 245.403H138.163H177.436C178.989 245.403 180.501 245.203 181.946 244.824H181.954C183.538 244.413 185.023 243.798 186.404 242.992C187.768 242.206 189.021 241.244 190.131 240.139C191.224 239.049 192.174 237.816 192.952 236.471C194.513 233.826 195.399 230.741 195.399 227.448V188.171V173.661V121.75V107.231L185.142 96.971ZM17.9583 235.138C17.1602 235.138 16.398 235.019 15.6756 234.795C15.2446 234.656 14.8216 234.488 14.4305 234.28C13.0537 233.562 11.9243 232.445 11.186 231.084C10.9626 230.681 10.775 230.242 10.6313 229.795C10.3959 229.053 10.2642 228.266 10.2642 227.444V198.428L46.967 235.138H17.9583ZM185.142 227.444C185.142 228.266 185.011 229.053 184.775 229.795C184.632 230.242 184.444 230.677 184.221 231.084C183.482 232.445 182.361 233.562 180.98 234.28C180.581 234.484 180.158 234.656 179.735 234.795C179.009 235.019 178.242 235.138 177.444 235.138H148.436L185.146 198.428V227.444H185.142Z" fill="#FDF4E0"/>
<path d="M140.083 172.256C140.083 172.256 126.506 174.719 121.195 188.12L135.733 184.237C137.932 183.65 139.508 181.722 139.644 179.452L140.083 172.256Z" fill="#FDF4E0"/>
<path d="M132.924 191.488C132.832 191.492 132.736 191.496 132.64 191.496C132.549 191.496 132.449 191.496 132.357 191.496H128.594C128.594 191.496 130.996 193.982 133.71 194.15H134.121C134.392 194.134 134.652 194.098 134.903 194.038C135.825 193.822 136.643 193.323 137.262 192.637C138.012 191.803 138.471 190.686 138.471 189.464C138.471 188.199 137.984 187.05 137.186 186.208C137.21 186.404 137.226 186.607 137.226 186.811C137.226 189.305 135.322 191.34 132.924 191.488Z" fill="#FDF4E0"/>
<path d="M139.919 134.903L142.545 132.792L143.212 125.074L151.381 124.304C153.292 124.124 155.092 123.33 156.513 122.037L166.306 113.137L83.9931 125.285L82.8238 125.457L83.9531 125.094L141.172 106.589C143.503 105.834 144.293 102.957 142.701 101.097C133.602 90.4501 119.068 85.7889 105.252 89.5003L52.3904 103.691L48.8147 104.649C47.0947 105.112 45.4186 105.743 43.8502 106.585C43.8342 106.593 43.8262 106.601 43.8143 106.605C35.1224 111.262 29.1603 120.421 29.0884 130.892C29.0166 140.554 33.8933 149.082 41.324 154.102C41.364 154.126 41.4039 154.154 41.4358 154.178C43.5908 155.659 45.1192 157.989 45.5383 160.675C45.5702 160.887 45.5941 161.094 45.6141 161.314C46.3125 166.597 48.4994 171.414 51.7439 175.325C53.4918 177.432 54.4775 180.066 54.4775 182.804V186.447L97.2982 226.243L98.3837 208.883C98.3837 208.883 123.992 212.998 129.244 212.675C134.496 212.347 133.957 206.804 133.957 206.804C132.217 210.112 129.324 210.412 127.069 210.009C125.473 209.725 123.984 209.015 122.711 208.013L109.274 197.454L103.316 175.17V192.769L99.5769 189.832L96.077 187.074V152.362L96.069 152.343L100.068 150.922L123.972 142.438C126.953 141.38 130.238 142.473 132.002 145.031L111.314 155.02L125.301 152.702C127.364 152.358 129.132 151.046 130.058 149.174L132.058 145.127C132.177 145.299 132.289 145.478 132.389 145.67L136.072 152.434C136.084 152.45 136.092 152.47 136.104 152.486C136.212 152.674 136.32 152.865 136.415 153.069C137.022 154.278 137.361 155.651 137.361 157.095C137.361 158.101 137.198 159.071 136.898 159.977C136.862 160.077 136.826 160.18 136.787 160.284C135.905 162.667 134.548 165.269 133.438 167.232C132.724 168.501 133.778 170.033 135.218 169.814L151.077 167.432C151.947 167.296 152.39 166.314 151.919 165.572L138.223 144.026C136.463 140.977 137.178 137.106 139.919 134.903Z" fill="#FDF4E0"/>
<path d="M43.4392 37.1458C55.8784 37.1458 60.0407 30.166 60.0407 21.3305H49.2338C48.5554 26.7339 47.0947 28.4819 43.4392 28.4819C37.8681 28.4819 37.4132 23.9245 37.4132 18.5769C37.4132 13.2333 38.1435 8.73172 43.4392 8.73172C47.0429 8.73172 48.6751 10.4717 49.2338 15.7075H60.0407C60.0407 7.26312 55.8145 0.00396729 43.4392 0.00396729C29.1404 0.00396729 26.4985 9.56977 26.4985 18.5769C26.4985 27.58 29.0845 37.1458 43.4392 37.1458Z" fill="#FDF4E0"/>
<path d="M74.4432 30.6728H85.6971L87.445 36.5831H98.8146L86.5471 0.562683H73.9403L61.2258 36.5831H72.5396L74.4432 30.6728ZM80.0701 9.46204L83.7336 22.7392H76.4146L80.0701 9.46204Z" fill="#FDF4E0"/>
<path d="M112.208 23.246L120.033 36.5831H133.482L123.07 23.4137C128.474 22.4 130.78 18.0661 130.78 13.2293C130.78 8.04931 129.543 0.562683 115.472 0.562683H101.401V36.5831H112.208V23.246ZM112.208 9.17869H115.077C118.904 9.17869 119.862 10.5874 119.862 13.2333C119.862 15.6517 118.96 17.1682 115.077 17.1682H112.208V9.17869Z" fill="#FDF4E0"/>
<path d="M152.279 37.1458C166.965 37.1458 169.782 27.6319 169.782 18.6288C169.782 9.51393 166.965 0 152.279 0C137.649 0 134.831 9.51393 134.831 18.5729C134.831 27.6319 137.589 37.1458 152.279 37.1458ZM152.279 8.72775C158.468 8.72775 158.807 13.2293 158.807 18.6288C158.807 23.9245 158.468 28.4819 152.279 28.4819C146.145 28.4819 145.75 23.9245 145.75 18.5769C145.75 13.2333 146.141 8.72775 152.279 8.72775Z" fill="#FDF4E0"/>
<path d="M15.0531 23.8128C17.6312 21.2347 17.6312 17.0564 15.0531 14.4824C12.4751 11.9044 8.29682 11.9044 5.72279 14.4824L1.05762 19.1476L5.72279 23.8128C8.30081 26.3908 12.4791 26.3908 15.0531 23.8128Z" fill="#FDF4E0"/>
<path d="M190.39 23.8128L195.056 19.1476L190.39 14.4824C187.812 11.9044 183.634 11.9044 181.06 14.4824C178.482 17.0604 178.482 21.2387 181.06 23.8128C183.638 26.3868 187.812 26.3908 190.39 23.8128Z" fill="#FDF4E0"/>
</svg>
