<?xml version="1.0" encoding="utf-8"?>
<!-- Generator: Adobe Illustrator 27.0.1, SVG Export Plug-In . SVG Version: 6.00 Build 0)  -->
<svg version="1.1" id="Livello_1" xmlns="http://www.w3.org/2000/svg" xmlns:xlink="http://www.w3.org/1999/xlink" x="0px" y="0px"
	 viewBox="0 0 1080 1080" style="enable-background:new 0 0 1080 1080;" xml:space="preserve">
<style type="text/css">
	.st0{fill:#547054;}
	.st1{fill:#EC6712;}
	.st2{fill:#FFFFFF;}
	.st3{font-family:'Paralucent-Heavy';}
	.st4{font-size:60.0184px;}
	.st5{fill:#9DC08C;}
</style>
<g>
	<g>
		<text transform="matrix(1 0 0 1 212.2375 538.9962)" class="st2 st3 st4">19</text>
		<text transform="matrix(1 0 0 1 796.0413 538.9962)" class="st2 st3 st4">82</text>
	</g>
	<g>
		<path class="st2" d="M752.94,425.28v36.38v181.49L624.61,771.5l-25.7,25.71h-0.63l-54.65,54.65l-9.79,9.78l-64.43-64.43h-0.62
			l-25.71-25.71L314.72,643.18V461.64v-36.34l0.01-0.01v-72.72c0-2.94,0.66-5.73,1.85-8.24c0.41-0.84,0.88-1.67,1.39-2.44
			c0.54-0.81,1.14-1.57,1.78-2.28c0.21-0.23,0.46-0.48,0.69-0.69c0.83-0.83,1.75-1.59,2.72-2.25c0.81-0.54,1.65-1.04,2.54-1.47
			c2.51-1.22,5.33-1.9,8.31-1.9h72.7l-91.99,91.99v36.35l125.23-125.22l0.02-0.02l3-3.08l-2.99,3.08l3.1-3.1h-0.09l0.01-0.01h181.6
			l128.34,128.36L752.94,425.28l-91.99-91.98h72.7c2.94,0,5.73,0.66,8.22,1.85c0.91,0.41,1.77,0.91,2.59,1.47
			c0.76,0.51,1.47,1.09,2.15,1.7c0.23,0.21,0.48,0.45,0.69,0.68c0.84,0.84,1.6,1.77,2.28,2.77c0.56,0.81,1.06,1.67,1.49,2.58
			c1.21,2.49,1.87,5.28,1.87,8.22L752.94,425.28l25.71,25.71v-98.41c0-0.2,0-0.38-0.02-0.58c-0.12-10.02-3.53-19.27-9.23-26.69
			c-1.98-2.08-4.01-4.13-6.08-6.16c-0.78-0.76-1.55-1.52-2.33-2.25c-0.02-0.03-0.02-0.05-0.03-0.03
			c-7.58-5.83-17.06-9.28-27.32-9.28H334.02c-10.34,0-19.87,3.52-27.48,9.4l-0.02,0.02c-1.52,1.16-2.96,2.43-4.31,3.78
			c-1.39,1.39-2.68,2.86-3.85,4.41l-0.02,0.02c-5.85,7.58-9.33,17.08-9.33,27.37V451l21.74-21.74l-21.73,21.75v36.35v130.11v36.33
			v98.42c0,8.25,2.23,15.99,6.12,22.63c1.95,3.36,4.33,6.45,7.07,9.18c2.79,2.77,5.92,5.18,9.34,7.15
			c6.6,3.85,14.28,6.04,22.46,6.04h98.39h0.98l50.63,50.7h0.02l29.89,29.94h0.02l1.83,1.83v0.02l17.98,18l18.07-18.07l1.78-1.78
			l80.64-80.64h0.98h98.41c3.89,0,7.68-0.5,11.3-1.45h0.02c3.97-1.03,7.69-2.57,11.15-4.59c3.42-1.97,6.56-4.38,9.34-7.15
			c2.74-2.73,5.12-5.82,7.07-9.19c3.91-6.63,6.13-14.36,6.13-22.61v-98.42v-36.36V487.37v-36.38L752.94,425.28z M334.01,771.5
			c-2,0-3.91-0.3-5.72-0.86c-1.08-0.35-2.14-0.77-3.12-1.29c-3.45-1.8-6.28-4.6-8.13-8.01c-0.56-1.01-1.03-2.11-1.39-3.23
			c-0.59-1.86-0.92-3.83-0.92-5.89v-72.71l91.97,91.99H334.01z M752.94,752.22c0,2.06-0.33,4.03-0.92,5.89
			c-0.36,1.12-0.83,2.21-1.39,3.23c-1.85,3.41-4.66,6.21-8.12,8.01c-1,0.51-2.06,0.94-3.12,1.29c-1.82,0.56-3.74,0.86-5.74,0.86
			h-72.69l91.99-91.99V752.22z"/>
		<path class="st2" d="M640.03,613.93c0,0-34.02,6.17-47.33,39.75l36.43-9.73c5.51-1.47,9.46-6.3,9.8-11.99L640.03,613.93z"/>
		<path class="st2" d="M622.09,662.12c-0.23,0.01-0.47,0.02-0.71,0.02c-0.23,0-0.48,0-0.71,0h-9.43v0c0,0,6.02,6.23,12.82,6.65h1.03
			c0.68-0.04,1.33-0.13,1.96-0.28c2.31-0.54,4.36-1.79,5.91-3.51c1.88-2.09,3.03-4.89,3.03-7.95c0-3.17-1.22-6.05-3.22-8.16
			c0.06,0.49,0.1,1,0.1,1.51C632.87,656.65,628.1,661.75,622.09,662.12z"/>
		<path class="st2" d="M639.62,520.33l6.58-5.29l1.67-19.34l20.47-1.93c4.79-0.45,9.3-2.44,12.86-5.68l24.54-22.3l-206.26,30.44
			l-2.93,0.43l2.83-0.91l143.38-46.37c5.84-1.89,7.82-9.1,3.83-13.76c-22.8-26.68-59.22-38.36-93.84-29.06l-132.46,35.56l-8.96,2.4
			c-4.31,1.16-8.51,2.74-12.44,4.85c-0.04,0.02-0.06,0.04-0.09,0.05c-21.78,11.67-36.72,34.62-36.9,60.86
			c-0.18,24.21,12.04,45.58,30.66,58.16c0.1,0.06,0.2,0.13,0.28,0.19c5.4,3.71,9.23,9.55,10.28,16.28c0.08,0.53,0.14,1.05,0.19,1.6
			c1.75,13.24,7.23,25.31,15.36,35.11c4.38,5.28,6.85,11.88,6.85,18.74v9.13l107.3,99.72l2.72-43.5c0,0,64.17,10.31,77.33,9.5
			c13.16-0.82,11.81-14.71,11.81-14.71c-4.36,8.29-11.61,9.04-17.26,8.03c-4-0.71-7.73-2.49-10.92-5l-33.67-26.46l-14.93-55.84v44.1
			l-9.37-7.36l-8.77-6.91v-86.98l-0.02-0.05l10.02-3.56l59.9-21.26c7.47-2.65,15.7,0.09,20.12,6.5l-51.84,25.03l35.05-5.81
			c5.17-0.86,9.6-4.15,11.92-8.84l5.01-10.14c0.3,0.43,0.58,0.88,0.83,1.36l9.23,16.95c0.03,0.04,0.05,0.09,0.08,0.13
			c0.27,0.47,0.54,0.95,0.78,1.46c1.52,3.03,2.37,6.47,2.37,10.09c0,2.52-0.41,4.95-1.16,7.22c-0.09,0.25-0.18,0.51-0.28,0.77
			c-2.21,5.97-5.61,12.49-8.39,17.41c-1.79,3.18,0.85,7.02,4.46,6.47l39.74-5.97c2.18-0.34,3.29-2.8,2.11-4.66l-34.32-53.99
			C630.96,535.55,632.75,525.85,639.62,520.33z"/>
		<path class="st2" d="M397.86,275.37c31.17,0,41.6-17.49,41.6-39.63h-27.08c-1.7,13.54-5.36,17.92-14.52,17.92
			c-13.96,0-15.1-11.42-15.1-24.82c0-13.39,1.83-24.67,15.1-24.67c9.03,0,13.12,4.36,14.52,17.48h27.08
			c0-21.16-10.59-39.35-41.6-39.35c-35.83,0-42.45,23.97-42.45,46.54C355.41,251.4,361.89,275.37,397.86,275.37z"/>
		<path class="st2" d="M475.55,259.15h28.2l4.38,14.81h28.49l-30.74-90.26h-31.59l-31.86,90.26h28.35L475.55,259.15z M489.65,206
			l9.18,33.27h-18.34L489.65,206z"/>
		<path class="st2" d="M570.18,240.54l19.61,33.42h33.7l-26.09-33c13.54-2.54,19.32-13.4,19.32-25.52c0-12.98-3.1-31.74-38.36-31.74
			H543.1v90.26h27.08V240.54z M570.18,205.29h7.19c9.59,0,11.99,3.53,11.99,10.16c0,6.06-2.26,9.86-11.99,9.86h-7.19V205.29z"/>
		<path class="st2" d="M670.59,275.37c36.8,0,43.86-23.84,43.86-46.4c0-22.84-7.06-46.68-43.86-46.68
			c-36.66,0-43.72,23.84-43.72,46.54S633.78,275.37,670.59,275.37z M670.59,204.16c15.51,0,16.36,11.28,16.36,24.81
			c0,13.27-0.85,24.69-16.36,24.69c-15.37,0-16.36-11.42-16.36-24.82C654.23,215.45,655.21,204.16,670.59,204.16z"/>
		<path class="st2" d="M326.73,241.96c6.46-6.46,6.46-16.93,0-23.38v0c-6.46-6.46-16.93-6.46-23.38,0l-11.69,11.69l11.69,11.69
			C309.81,248.42,320.28,248.42,326.73,241.96z"/>
		<path class="st2" d="M766.09,241.96l11.69-11.69l-11.69-11.69c-6.46-6.46-16.93-6.46-23.38,0v0c-6.46,6.46-6.46,16.93,0,23.38
			S759.63,248.42,766.09,241.96z"/>
	</g>
</g>
</svg>
