<?xml version="1.0" encoding="utf-8"?>
<!-- Generator: Adobe Illustrator 27.0.1, SVG Export Plug-In . SVG Version: 6.00 Build 0)  -->
<svg version="1.1" id="Livello_1" xmlns="http://www.w3.org/2000/svg" xmlns:xlink="http://www.w3.org/1999/xlink" x="0px" y="0px"
	 viewBox="0 0 1080 1080" style="enable-background:new 0 0 1080 1080;" xml:space="preserve">
<style type="text/css">
	.st0{fill:#547054;}
	.st1{font-family:'Paralucent-Heavy';}
	.st2{font-size:60.9855px;}
	.st3{fill:#EC6712;}
	.st4{fill:#FFFFFF;}
	.st5{fill:#9DC08C;}
</style>
<g>
	<g>
		<text transform="matrix(1 0 0 1 206.959 551.1748)" class="st0 st1 st2">19</text>
		<text transform="matrix(1 0 0 1 800.165 551.1748)" class="st0 st1 st2">82</text>
	</g>
	<g>
		<path class="st0" d="M780.19,350.64c-0.12-10.09-3.55-19.39-9.3-26.86c-2-2.09-4.04-4.16-6.11-6.21
			c-0.78-0.76-1.57-1.52-2.35-2.26c-0.02-0.03-0.02-0.05-0.03-0.03c-7.64-5.87-17.17-9.35-27.5-9.35H332.57
			c-10.4,0-20,3.54-27.66,9.45l-0.02,0.02c-1.54,1.17-2.99,2.45-4.35,3.81c-1.4,1.4-2.7,2.88-3.87,4.44l-0.02,0.02
			c-5.89,7.64-9.39,17.2-9.39,27.55v402.34c0,8.31,2.24,16.1,6.16,22.78c1.97,3.38,4.36,6.49,7.12,9.24
			c2.81,2.79,5.96,5.21,9.41,7.2c6.65,3.87,14.38,6.08,22.61,6.08h100.05l50.97,51.04h0.02l30.1,30.14h0.02l1.84,1.84v0.02
			l18.11,18.13l101.17-101.17h100.05c3.92,0,7.73-0.5,11.37-1.46h0.02c3.99-1.04,7.75-2.59,11.22-4.62c3.45-1.98,6.6-4.41,9.41-7.2
			c2.76-2.74,5.15-5.85,7.12-9.25c3.93-6.68,6.17-14.45,6.17-22.76V351.22C780.2,351.02,780.2,350.84,780.19,350.64z M313.16,351.22
			c0-2.96,0.66-5.76,1.86-8.29c0.41-0.84,0.88-1.68,1.39-2.45c0.55-0.82,1.16-1.59,1.8-2.3c0.21-0.23,0.47-0.47,0.7-0.69
			c0.82-0.84,1.77-1.6,2.74-2.27c0.81-0.55,1.66-1.04,2.56-1.48c2.53-1.22,5.37-1.91,8.36-1.91h73.2l-92.61,92.61V351.22z
			 M332.57,772.97c-2.01,0-3.93-0.3-5.76-0.87c-1.08-0.35-2.15-0.78-3.14-1.3c-3.48-1.81-6.33-4.63-8.19-8.07
			c-0.56-1.02-1.04-2.12-1.4-3.25c-0.59-1.88-0.93-3.86-0.93-5.93v-73.2l92.59,92.61H332.57z M754.32,753.56
			c0,2.07-0.34,4.06-0.93,5.93c-0.37,1.13-0.84,2.23-1.4,3.25c-1.86,3.43-4.7,6.25-8.17,8.07c-1.01,0.52-2.07,0.95-3.14,1.3
			c-1.83,0.56-3.77,0.87-5.78,0.87h-73.18l92.61-92.61V753.56z M754.32,643.75L634.3,763.79l-35.69,35.07l-55.01,55.01l-9.86,9.85
			l-64.86-64.86l-85.35-84.74l-0.21-0.2l-1.97-1.97l-68.2-68.17V424.45h0.02v36.58l126.07-126.06l3.14-3.14h182.74l129.2,129.21
			V643.75z M754.32,424.42l-92.61-92.59h73.18c2.96,0,5.78,0.66,8.28,1.86c0.91,0.41,1.78,0.91,2.62,1.48
			c0.76,0.52,1.48,1.1,2.15,1.71c0.24,0.21,0.49,0.46,0.7,0.69c0.85,0.85,1.62,1.78,2.3,2.79c0.56,0.82,1.05,1.68,1.49,2.59
			c1.2,2.52,1.88,5.32,1.88,8.28V424.42z"/>
		<path class="st0" d="M395.61,273.67c31.38,0,41.88-17.61,41.88-39.9h-27.26c-1.71,13.63-5.4,18.04-14.62,18.04
			c-14.06,0-15.2-11.5-15.2-24.99c0-13.48,1.84-24.84,15.2-24.84c9.09,0,13.2,4.39,14.62,17.59h27.26
			c0-21.3-10.66-39.61-41.88-39.61c-36.07,0-42.74,24.14-42.74,46.85C352.88,249.54,359.4,273.67,395.61,273.67z"/>
		<path class="st0" d="M473.83,257.34h28.39l4.41,14.91h28.68l-30.95-90.87h-31.8l-32.08,90.87h28.54L473.83,257.34z M488.02,203.83
			l9.24,33.5H478.8L488.02,203.83z"/>
		<path class="st0" d="M569.08,238.61l19.74,33.65h33.92l-26.27-33.22c13.63-2.56,19.45-13.49,19.45-25.69
			c0-13.07-3.13-31.96-38.62-31.96h-35.49v90.87h27.26V238.61z M569.08,203.11h7.24c9.65,0,12.08,3.55,12.08,10.23
			c0,6.1-2.27,9.93-12.08,9.93h-7.24V203.11z"/>
		<path class="st0" d="M670.17,273.67c37.05,0,44.15-24,44.15-46.71c0-22.99-7.1-46.99-44.15-46.99c-36.91,0-44.02,24-44.02,46.85
			S633.12,273.67,670.17,273.67z M670.17,201.98c15.61,0,16.47,11.36,16.47,24.97c0,13.36-0.85,24.85-16.47,24.85
			c-15.48,0-16.47-11.5-16.47-24.99C653.7,213.34,654.69,201.98,670.17,201.98z"/>
		<path class="st0" d="M325.24,240.04c6.5-6.5,6.5-17.04,0-23.54s-17.04-6.5-23.54,0l-11.77,11.77l11.77,11.77
			C308.21,246.54,318.74,246.54,325.24,240.04z"/>
		<path class="st0" d="M744.01,240.04c6.5,6.5,17.04,6.5,23.54,0l11.77-11.77l-11.77-11.77c-6.5-6.5-17.04-6.5-23.54,0h0
			C737.51,223,737.51,233.54,744.01,240.04L744.01,240.04z"/>
		<path class="st0" d="M548.25,640.19l10.3,59.11c0.9,5.16,5.92,8.58,11.05,7.51l0.43-0.1l93.68-19.46l19.93-93.39l0.11-0.58
			c1.1-5.14-2.3-10.18-7.5-11.09l-59.17-10.3c-5.52-0.96-10.92,2.29-12.63,7.62c-3.51,10.84-9.57,21.03-18.18,29.64l-0.07,0.07
			c-8.76,8.74-19.17,14.85-30.24,18.32C550.59,629.2,547.29,634.62,548.25,640.19z M607,630.35c0.03-0.03,0.08-0.07,0.11-0.1
			l-0.23-0.23c0.47-0.32,0.95-0.6,1.45-0.86c2.96-2.41,6.73-3.86,10.85-3.86c9.51,0,17.23,7.71,17.23,17.23v17.22h-17.23
			c-9.51,0-17.23-7.7-17.23-17.22C601.95,637.77,603.88,633.48,607,630.35z"/>
		<path class="st0" d="M683.95,520.63l-0.1-0.42l-19.46-93.67l-93.38-19.92l-0.59-0.13c-5.14-1.09-10.18,2.31-11.09,7.5l-10.3,59.18
			c-0.96,5.52,2.29,10.92,7.62,12.64c10.84,3.5,21.03,9.56,29.63,18.15l0.08,0.08c8.74,8.77,14.85,19.19,18.3,30.25
			c1.69,5.37,7.12,8.67,12.68,7.69l59.11-10.29C681.6,530.78,685.02,525.78,683.95,520.63z M637.43,470.44
			c0,9.51-7.7,17.23-17.22,17.23c-4.76,0-9.05-1.93-12.18-5.06c-0.02-0.02-0.03-0.03-0.05-0.05c-1.26-1.27-2.33-2.75-3.14-4.36
			c-1.19-2.33-1.85-4.96-1.85-7.76c0-9.52,7.71-17.24,17.23-17.24h17.22V470.44z"/>
		<path class="st0" d="M384.46,592.41l0.1,0.42l19.46,93.67l93.38,19.92l0.59,0.13c5.14,1.09,10.18-2.31,11.09-7.5l10.3-59.18
			c0.96-5.52-2.29-10.92-7.62-12.64c-10.84-3.5-21.03-9.56-29.63-18.15l-0.08-0.08c-8.74-8.77-14.85-19.19-18.3-30.25
			c-1.69-5.37-7.12-8.67-12.68-7.69l-59.11,10.29C386.8,582.26,383.39,587.26,384.46,592.41z M430.97,642.6
			c0-9.51,7.7-17.23,17.22-17.23c4.76,0,9.06,1.93,12.18,5.06c0.02,0.02,0.03,0.03,0.05,0.05c1.26,1.27,2.33,2.75,3.14,4.36
			c1.19,2.33,1.85,4.96,1.85,7.76c0,9.52-7.71,17.24-17.23,17.24h-17.22V642.6z"/>
		<path class="st0" d="M508.82,413.82c-0.9-5.18-5.91-8.59-11.04-7.51l-0.44,0.1l-93.68,19.46l-19.91,93.38l-0.13,0.57
			c-1.09,5.16,2.31,10.19,7.5,11.09l59.17,10.32c5.52,0.96,10.92-2.29,12.65-7.63c3.5-10.83,9.55-21.02,18.15-29.64
			c0.02-0.02,0.04-0.04,0.07-0.07c8.78-8.74,19.19-14.85,30.26-18.31c5.37-1.69,8.65-7.12,7.69-12.67L508.82,413.82z M460.58,483.04
			c-0.02,0.02-0.04,0.03-0.08,0.05l0.01,0.01c-0.03,0.04-0.07,0.08-0.11,0.12c-3.13,3.13-7.42,5.05-12.18,5.05
			c-9.51,0-17.23-7.71-17.23-17.23v-17.21h17.23c9.51,0,17.23,7.69,17.23,17.21C465.45,475.73,463.6,479.94,460.58,483.04z"/>
		
			<rect x="516.85" y="539.72" transform="matrix(0.7071 -0.7071 0.7071 0.7071 -237.2309 540.3871)" class="st0" width="33.68" height="33.68"/>
		
			<ellipse transform="matrix(0.9871 -0.1602 0.1602 0.9871 -74.7804 92.071)" class="st0" cx="533.69" cy="509.87" rx="7.89" ry="7.89"/>
		<path class="st0" d="M506.26,529.12c3.08-3.08,3.08-8.08,0-11.16c-3.08-3.08-8.08-3.08-11.16,0c-3.08,3.08-3.08,8.08,0,11.16
			C498.18,532.21,503.17,532.21,506.26,529.12z"/>
		
			<ellipse transform="matrix(0.9732 -0.2298 0.2298 0.9732 -114.8432 126.7791)" class="st0" cx="487" cy="556.56" rx="7.89" ry="7.89"/>
		<path class="st0" d="M495.1,595.15c3.07,3.08,8.07,3.08,11.16,0c3.08-3.08,3.08-8.09,0-11.17c-3.08-3.08-8.09-3.08-11.16,0
			c-3.07,3.07-3.08,8.06-0.02,11.15C495.09,595.14,495.09,595.14,495.1,595.15z"/>
		<circle class="st0" cx="533.69" cy="603.24" r="7.89"/>
		<path class="st0" d="M561.12,595.15c3.08,3.08,8.07,3.08,11.15,0.01l0.01-0.01c3.08-3.08,3.08-8.09,0-11.17
			c-3.07-3.08-8.07-3.08-11.16,0C558.04,587.07,558.04,592.07,561.12,595.15z"/>
		
			<ellipse transform="matrix(0.7071 -0.7071 0.7071 0.7071 -223.5562 573.4008)" class="st0" cx="580.38" cy="556.56" rx="7.89" ry="7.89"/>
		<path class="st0" d="M561.12,517.96c-3.08,3.08-3.08,8.08,0,11.16c3.08,3.08,8.08,3.08,11.16,0c3.08-3.08,3.08-8.08,0-11.16
			C569.2,514.88,564.2,514.88,561.12,517.96z"/>
	</g>
</g>
</svg>
